<?xml version="1.0" standalone="no"?>
<!DOCTYPE svg PUBLIC "-//W3C//DTD SVG 20010904//EN"
 "http://www.w3.org/TR/2001/REC-SVG-20010904/DTD/svg10.dtd">
<svg version="1.0" xmlns="http://www.w3.org/2000/svg"
 width="512.000000pt" height="512.000000pt" viewBox="0 0 512.000000 512.000000"
 preserveAspectRatio="xMidYMid meet">
<metadata>
Created by potrace 1.14, written by Peter Selinger 2001-2017
</metadata>
<g transform="translate(0.000000,512.000000) scale(0.100000,-0.100000)"
fill="#000000" stroke="none">
<path d="M1210 5104 c-46 -20 -68 -41 -92 -89 -19 -35 -21 -59 -21 -242 l-1
-203 -305 0 c-343 0 -388 -6 -501 -66 -134 -70 -248 -222 -279 -372 -8 -37
-11 -595 -11 -1855 1 -1747 1 -1804 20 -1870 31 -112 94 -210 179 -280 59 -49
171 -103 241 -116 36 -7 756 -10 2127 -10 l2071 -1 80 23 c44 13 106 39 137
58 76 45 166 143 204 221 65 131 61 -1 60 1978 0 1261 -3 1820 -11 1855 -20
94 -85 212 -153 280 -69 69 -185 128 -295 150 -8 2 -155 4 -326 4 l-311 1 0
203 c0 213 -5 237 -52 291 -42 48 -135 67 -197 41 -50 -21 -72 -41 -97 -90
-18 -36 -20 -58 -20 -242 l0 -203 -1096 2 -1096 3 -1 200 c-1 180 -3 204 -21
240 -26 50 -51 73 -100 91 -49 17 -90 17 -133 -2z m-114 -1084 c1 -222 6 -250
47 -297 75 -86 199 -86 274 0 41 47 45 73 47 296 l1 186 1095 0 1095 0 1 -185
c1 -222 6 -250 47 -297 72 -81 186 -86 264 -11 50 48 56 81 56 295 0 132 3
193 11 196 6 2 139 3 296 2 270 -1 287 -2 326 -22 22 -12 53 -41 69 -65 l29
-43 0 -390 1 -390 -2189 -3 c-1306 -1 -2192 2 -2195 7 -3 5 -6 180 -5 388 l0
380 28 46 c25 45 63 72 114 86 13 4 151 6 305 6 l282 0 1 -185z m3654 -1107
c3 -7 5 -552 5 -1211 l-1 -1198 -26 -45 c-16 -27 -43 -54 -70 -69 l-43 -24
-2055 0 -2055 0 -41 23 c-48 27 -94 92 -95 136 -3 76 -4 2381 -2 2390 5 17
4376 15 4383 -2z"/>
<path d="M3584 2540 c-27 -11 -254 -232 -710 -688 -370 -370 -676 -672 -680
-672 -5 0 -146 138 -314 306 -168 168 -316 311 -330 319 -40 21 -88 25 -139 9
-102 -30 -152 -140 -112 -246 13 -35 784 -806 819 -819 54 -21 99 -21 144 -1
58 26 1532 1498 1559 1556 65 146 -91 302 -237 236z"/>
</g>
</svg>
